HIERARCHY
ROOT Hips
{
  OFFSET -17.8222 7.7 127.125
  CHANNELS 6 Xposition Yposition Zposition Zrotation Xrotation Yrotation
  JOINT Spine
  {
    OFFSET 0 0 0
    CHANNELS 3 Zrotation Xrotation Yrotation
    JOINT Spine1
    {
      OFFSET 19 0 0
      CHANNELS 3 Zrotation Xrotation Yrotation
      JOINT Neck
      {
        OFFSET 22.5 0.6 0
        CHANNELS 3 Zrotation Xrotation Yrotation
        JOINT Head
        {
          OFFSET 14 0.0308777 0
          CHANNELS 3 Zrotation Xrotation Yrotation
          End Site
          {
            OFFSET 17 0 0
          }
        }
      }
      JOINT LeftShoulder
      {
        OFFSET 19.8 3.7 4.3
        CHANNELS 3 Zrotation Xrotation Yrotation
        JOINT LeftArm
        {
          OFFSET 8 0 0
          CHANNELS 3 Zrotation Xrotation Yrotation
          JOINT LeftForeArm
          {
            OFFSET 15.2 0 0
            CHANNELS 3 Zrotation Xrotation Yrotation
            JOINT LeftHand
            {
              OFFSET 17.8 0 0
              CHANNELS 3 Zrotation Xrotation Yrotation
              End Site
              {
                OFFSET 7.2 0 0
              }
            }
          }
        }
      }
      JOINT RightShoulder
      {
        OFFSET 19.8 3.7 -4.3
        CHANNELS 3 Zrotation Xrotation Yrotation
        JOINT RightArm
        {
          OFFSET 8 0 0.151654
          CHANNELS 3 Zrotation Xrotation Yrotation
          JOINT RightForeArm
          {
            OFFSET 15.2 0 0
            CHANNELS 3 Zrotation Xrotation Yrotation
            JOINT RightHand
            {
              OFFSET 17.8 0 0
              CHANNELS 3 Zrotation Xrotation Yrotation
              End Site
              {
                OFFSET 7.2 0 0
              }
            }
          }
        }
      }
    }
  }
  JOINT LeftUpLeg
  {
    OFFSET 5.98425 -7.666 4.78879
    CHANNELS 3 Zrotation Xrotation Yrotation
    JOINT LeftLeg
    {
      OFFSET 16 0 0
      CHANNELS 3 Zrotation Xrotation Yrotation
      JOINT LeftFoot
      {
        OFFSET 18 0 0
        CHANNELS 3 Zrotation Xrotation Yrotation
        End Site
        {
          OFFSET 0 -10.8 0
        }
      }
    }
  }
  JOINT RightUpLeg
  {
    OFFSET 5.98425 -7.66598 -4.78879
    CHANNELS 3 Zrotation Xrotation Yrotation
    JOINT RightLeg
    {
      OFFSET 16 0 0
      CHANNELS 3 Zrotation Xrotation Yrotation
      JOINT RightFoot
      {
        OFFSET 18 0 0
        CHANNELS 3 Zrotation Xrotation Yrotation
        End Site
        {
          OFFSET 0 -10.8 0
        }
      }
    }
  }
  JOINT Tail
  {
    OFFSET 6.83696 -0.722574 0
    CHANNELS 3 Zrotation Xrotation Yrotation
    JOINT Tail1
    {
      OFFSET 12 0 0
      CHANNELS 3 Zrotation Xrotation Yrotation
      End Site
      {
        OFFSET 12 0 0
      }
    }
  }
}
MOTION
Frames:	7
Frame Time:	0.0166667
-6.80099 7.55741 143.287 -121.762 53.3886 19.227 -131.796 -6.60898 -19.108 -20.2244 0.657701 8.75048 -13.6192 -5.67062 0.253485 -66.9924 83.5692 101.288 -109.71 -36.1882 -137.076 86.7359 -53.3578 -158.002 -61.315 -67.5357 36.7001 28.069 -2.06934 -46.4506 76.5438 -30.5076 50.2204 98.1249 -54.167 -8.10225 -94.2825 33.2446 -13.0029 47.245 -4.78513 -7.49635 -95.3926 37.2809 -27.7803 159.716 30.4452 -1.6691 -35.4055 -3.75909 14.1788 -165.806 -64.4089 -41.7432 159.751 -36.625 -7.26838 -9.03785 -10.9213 -31.8256 89.0825 -3.15436 -1.32976 15.428 10.4708 -3.00441 
-6.78543 7.58112 143.272 -121.455 53.1205 18.9067 -131.938 -6.46363 -18.8402 -20.2411 0.803891 8.29795 -13.2304 -6.02493 0.0498228 -70.3558 82.5137 104.285 -109.613 -36.032 -137.116 86.0521 -52.8536 -158.748 -58.0871 -69.2219 41.6879 26.2274 -1.46369 -48.2315 76.5049 -30.665 50.4251 99.606 -53.9474 -7.15706 -94.2833 39.9157 -14.7987 50.351 -3.01617 -0.224995 -95.7953 36.9978 -27.6289 159.718 30.8478 -1.69369 -35.3032 -3.73636 14.2812 -166.504 -64.6519 -42.5877 159.838 -36.3619 -7.22464 -8.84367 -10.9522 -31.7292 89.1041 -3.0358 -1.51881 15.7122 10.3633 -2.91999 
-6.72575 7.61613 143.258 -121.043 52.7847 18.4131 -132.032 -6.41202 -18.6781 -20.3681 0.874771 7.95061 -12.7882 -6.46868 -0.00188628 -71.9766 81.5946 105.453 -109.578 -35.9218 -137.235 85.8047 -52.356 -158.962 -53.749 -70.8369 47.505 24.8012 -0.899715 -49.6916 76.4408 -30.8853 50.6733 100.73 -53.4895 -6.20239 -93.5981 46.773 -17.3942 52.7733 -0.690934 7.25754 -96.4148 36.8225 -27.3607 159.804 31.4874 -1.72481 -34.9455 -3.67132 14.6104 -166.613 -64.9954 -42.8165 159.856 -36.0944 -7.19937 -8.83291 -10.8908 -31.4663 88.9884 -2.85789 -1.86527 16.0875 10.3103 -2.79777 
-6.65653 7.61709 143.228 -120.752 52.3885 17.9915 -131.834 -6.48239 -18.5917 -20.8696 0.858062 7.71011 -12.1041 -6.96741 0.105545 -73.0475 80.7774 105.74 -109.543 -35.8082 -137.364 86.0264 -51.7528 -158.849 -45.1013 -72.9812 57.6368 22.9718 -0.202034 -52.5131 76.4434 -31.0539 51.0447 100.811 -52.9158 -5.94308 -91.7315 53.5723 -21.1038 54.6305 1.99335 14.6062 -97.1286 36.6656 -27.1583 159.871 32.0534 -1.75723 -34.3932 -3.57801 14.9642 -167.785 -65.619 -44.2051 159.888 -36.3995 -7.23493 -8.90869 -10.9193 -31.7369 88.963 -2.64681 -2.26148 16.3597 10.265 -2.71736 
-6.6039 7.57483 143.197 -120.732 51.9141 17.8377 -131.118 -6.64774 -18.2735 -21.8944 0.771256 7.2498 -11.124 -7.50053 0.39138 -74.2944 79.9649 105.791 -109.535 -35.7356 -137.486 86.4396 -51.1825 -158.755 -33.609 -74.6127 70.739 20.9304 0.588535 -55.904 76.4665 -31.179 51.3937 100.72 -52.151 -5.69569 -89.9821 58.2687 -25.11 55.9426 3.72729 18.5985 -97.7385 36.5289 -27.1052 159.91 32.6015 -1.78398 -33.7865 -3.47413 15.2345 -169.004 -66.3483 -45.7809 159.933 -36.8457 -7.2799 -9.08964 -10.9461 -32.1387 89.193 -2.45175 -2.68027 16.4293 10.1891 -2.63151 
-6.54314 7.53893 143.166 -120.716 51.4036 17.5984 -130.299 -6.97036 -18.1519 -23.1018 0.545147 7.04701 -10.1323 -8.09618 0.561997 -75.9519 78.8327 106.462 -109.513 -35.6899 -137.514 86.9298 -50.7475 -158.638 -23.1096 -75.2769 82.9942 19.712 1.03981 -58.3565 76.4115 -31.3486 51.5562 100.287 -50.7857 -5.73709 -86.5478 62.904 -30.7972 56.8139 5.55295 22.4948 -98.3886 36.2881 -26.9697 159.988 32.9785 -1.81822 -33.1159 -3.35769 15.5252 -170.045 -66.9874 -47.0993 159.992 -36.9962 -7.29622 -9.16549 -10.9457 -32.2467 89.4012 -2.17918 -3.16143 16.4237 10.1383 -2.50427 
-6.47538 7.5369 143.138 -120.472 50.9676 17.2149 -129.723 -7.28972 -18.2015 -24.2191 0.265884 7.12489 -9.27234 -8.69753 0.626514 -77.2624 77.6428 107.087 -109.488 -35.666 -137.495 87.8879 -50.3655 -158.139 -12.465 -75.322 95.239 18.2556 1.72322 -60.8808 76.3599 -31.4715 51.6318 98.519 -49.1361 -6.74952 -78.3492 68.1833 -40.5746 56.626 7.98803 28.6059 -99.0746 36.2268 -26.7391 160.1 33.4445 -1.84784 -32.5661 -3.25821 15.9419 -170.785 -67.1595 -48.3595 160.124 -36.4673 -7.21349 -9.12986 -10.8834 -31.9235 89.3519 -1.99808 -3.57826 16.4036 10.1384 -2.39261 
